<svg width="22" height="22" viewBox="0 0 22 22" fill="none" xmlns="http://www.w3.org/2000/svg">
<path d="M14.75 12.75C14.75 13.5784 15.4216 14.25 16.25 14.25C17.0784 14.25 17.75 13.5784 17.75 12.75C17.75 11.9216 17.0784 11.25 16.25 11.25C15.4216 11.25 14.75 11.9216 14.75 12.75Z" stroke="#00A63E" stroke-width="1.5"/>
<path d="M17.65 6.75C17.7156 6.42689 17.75 6.09247 17.75 5.75C17.75 2.98858 15.5114 0.75 12.75 0.75C9.98858 0.75 7.75 2.98858 7.75 5.75C7.75 6.09247 7.78443 6.42689 7.85002 6.75" stroke="#00A63E" stroke-width="1.5"/>
<path d="M5.75 6.74324H14.75C17.5784 6.74324 18.9926 6.74324 19.8713 7.62234C20.75 8.50145 20.75 9.91634 20.75 12.7461V14.7471C20.75 17.5769 20.75 18.9918 19.8713 19.8709C18.9926 20.75 17.5784 20.75 14.75 20.75H8.75C4.97876 20.75 3.09315 20.75 1.92157 19.5779C0.75 18.4057 0.75 16.5192 0.75 12.7461V10.7452C0.75 6.97211 0.75 5.08558 1.92157 3.91344C2.86466 2.9699 4.27043 2.78589 6.75 2.75H8.75" stroke="#00A63E" stroke-width="1.5" stroke-linecap="round"/>
</svg>
