<svg width="517" height="493" viewBox="0 0 517 493" fill="none" xmlns="http://www.w3.org/2000/svg">
<path d="M333.109 0C323.269 54.603 337.104 112.321 367.113 158.942C397.123 205.564 442.526 241.382 493.192 263.963C535.575 282.845 581.466 292.773 623.946 311.461C666.427 330.149 707.154 360.321 722.549 404.023" stroke="white" stroke-width="0.990835" stroke-miterlimit="10"/>
<path d="M302.808 1.16797C299.69 30.4648 302.321 60.4429 310.603 88.8637C318.787 117.187 332.818 143.759 350.648 166.437C363.606 182.983 378.319 197.875 394.59 211.209C421.579 233.206 452.758 251.115 485.69 264.839C509.853 274.962 534.894 282.845 559.642 291.411C580.2 298.516 600.466 306.01 619.952 315.451C662.92 336.183 703.355 368.4 719.432 413.562" stroke="white" stroke-width="0.990835" stroke-miterlimit="10"/>
<path d="M272.605 2.23877C271.241 33.4822 275.625 65.3096 286.05 94.9957C296.476 124.585 313.429 151.643 334.182 173.834C348.7 189.407 364.679 203.131 382.217 215.395C411.252 235.542 444.087 252.186 478.285 265.618C503.423 275.448 529.243 283.624 554.575 292.871C575.621 300.56 596.374 308.833 616.056 319.15C659.608 341.829 699.751 376.187 716.314 422.808" stroke="white" stroke-width="0.990835" stroke-miterlimit="10"/>
<path d="M242.303 3.40674C242.692 36.5968 248.831 70.1762 261.4 101.225C273.968 132.079 293.845 159.721 317.618 181.231C333.695 195.831 350.94 208.387 369.648 219.483C400.631 237.781 435.122 253.159 470.588 266.202C496.7 275.838 523.299 284.306 549.314 294.233C570.847 302.409 591.99 311.656 611.963 322.849C656.003 347.571 695.95 384.07 713.001 432.055" stroke="white" stroke-width="0.990835" stroke-miterlimit="10"/>
<path d="M212.098 4.57471C214.339 39.8087 222.133 75.1401 236.943 107.357C251.753 139.574 274.455 167.8 301.249 188.629C318.787 202.255 337.396 213.643 357.37 223.668C390.4 240.214 426.45 254.23 463.182 266.981C490.269 276.324 517.647 285.084 544.247 295.693C566.364 304.453 587.799 314.478 607.968 326.645C652.592 353.411 692.15 391.954 709.785 441.399" stroke="white" stroke-width="0.990835" stroke-miterlimit="10"/>
<path d="M181.894 5.74268C185.888 42.9233 195.437 80.104 212.39 113.586C229.441 147.068 254.871 175.976 284.783 196.123C303.685 208.874 323.756 218.996 344.899 227.951C379.877 242.648 417.584 255.398 455.68 267.856C483.643 277.006 511.899 286.057 539.18 297.348C561.785 306.692 583.609 317.593 604.07 330.538C649.182 359.251 688.545 399.935 706.667 450.84" stroke="white" stroke-width="0.990835" stroke-miterlimit="10"/>
<path d="M151.591 6.91064C157.437 46.0379 168.544 85.0679 187.836 119.815C207.03 154.563 235.188 184.151 268.315 203.618C288.679 215.492 310.114 224.349 332.426 232.136C369.451 244.984 408.716 256.469 448.079 268.538C477.017 277.395 506.052 286.739 534.015 298.711C557.107 308.638 579.321 320.318 600.075 334.237C645.673 364.993 684.744 407.819 703.451 460.086" stroke="white" stroke-width="0.990835" stroke-miterlimit="10"/>
<path d="M121.388 8.07861C128.987 49.1525 141.849 89.9344 163.284 126.044C184.719 162.057 215.605 192.522 251.85 211.015C273.578 222.111 296.475 229.605 320.053 236.321C359.027 247.32 399.948 257.539 440.675 269.316C470.587 277.979 500.402 287.615 528.95 300.268C552.626 310.78 575.133 323.238 596.081 338.13C642.264 370.833 681.042 415.8 700.237 469.527" stroke="white" stroke-width="0.990835" stroke-miterlimit="10"/>
<path d="M91.1836 9.24634C100.635 52.2669 115.152 94.8981 138.731 132.273C162.31 169.649 195.924 200.892 235.384 218.509C258.476 228.826 282.834 234.958 307.582 240.603C348.504 249.85 391.18 258.707 433.076 270.095C463.962 278.563 494.556 288.393 523.786 301.728C547.949 312.726 570.846 326.158 592.086 341.926C638.757 376.673 677.34 423.684 697.119 478.871" stroke="white" stroke-width="0.990835" stroke-miterlimit="10"/>
<path d="M60.8818 10.4143C72.0866 55.3815 88.3579 99.862 114.178 138.503C139.997 177.143 176.242 209.36 218.918 226.004C243.374 235.542 269.193 240.311 295.208 244.789C338.176 252.186 382.41 259.778 425.573 270.874C457.434 279.049 488.807 289.172 518.622 303.285C543.272 314.867 566.656 329.078 587.994 345.721C635.249 382.513 673.443 431.568 693.806 488.215" stroke="white" stroke-width="0.990835" stroke-miterlimit="10"/>
<path d="M30.6777 11.5825C43.6363 58.5937 61.564 104.826 89.6247 144.732C117.685 184.638 156.658 217.828 202.452 233.498C228.369 242.356 255.553 245.665 282.737 249.071C327.653 254.619 373.544 260.946 418.071 271.75C450.906 279.731 483.059 290.145 513.555 304.842C538.79 317.009 562.467 332.095 584.097 349.615C631.839 388.353 669.838 439.647 690.688 497.656" stroke="white" stroke-width="0.990835" stroke-miterlimit="10"/>
<path d="M0.473633 12.7505C15.2834 61.6109 34.8674 109.693 65.1691 150.961C95.4707 192.23 137.075 226.296 186.083 240.896C213.365 248.974 242.01 250.921 270.363 253.257C351.914 259.778 435.122 269.998 508.391 306.302C590.82 347.084 656.392 420.57 687.473 507" stroke="white" stroke-width="0.990835" stroke-miterlimit="10"/>
</svg>
