<svg width="80" height="82" viewBox="0 0 80 82" fill="none" xmlns="http://www.w3.org/2000/svg">
<path d="M62.6745 71.0155L55.3881 36.8633L69.5562 22.2862C75.6282 16.0388 77.6522 7.709 75.6282 3.5441C71.5802 1.46165 63.4841 3.5441 57.4121 9.79145L43.244 24.3686L10.0501 16.8718C8.02611 16.4553 6.4069 17.2883 5.59729 18.9542L4.38288 21.0367C3.57328 23.1191 3.97808 25.2016 5.59729 26.4511L27.0518 41.0282L18.9558 53.5229H6.8117L2.76367 57.6878L14.9078 66.0176L23.0038 78.5123L27.0518 74.3474V61.8527L39.1959 53.5229L53.364 75.5969C54.5784 77.2629 56.6025 77.6793 58.6265 76.8464L60.6505 76.0134C62.2697 74.7639 63.0793 73.098 62.6745 71.0155Z" stroke="#155DFC" stroke-width="5.52592" stroke-linecap="round" stroke-linejoin="round"/>
</svg>
