<svg width="38" height="40" viewBox="0 0 38 40" fill="none" xmlns="http://www.w3.org/2000/svg">
<path d="M30.0956 34.1018L26.5966 17.7018L33.4002 10.7018C36.316 7.70178 37.2879 3.70178 36.316 1.70178C34.3721 0.701782 30.4843 1.70178 27.5685 4.70178L20.765 11.7018L4.82515 8.10178C3.85321 7.90178 3.07566 8.30178 2.68689 9.10178L2.10372 10.1018C1.71495 11.1018 1.90934 12.1018 2.68689 12.7018L12.9894 19.7018L9.10168 25.7018H3.27005L1.32617 27.7018L7.15781 31.7018L11.0456 37.7018L12.9894 35.7018V29.7018L18.8211 25.7018L25.6246 36.3018C26.2078 37.1018 27.1797 37.3018 28.1517 36.9018L29.1236 36.5018C29.9012 35.9018 30.2899 35.1018 30.0956 34.1018Z" stroke="white" stroke-width="2.65357" stroke-linecap="round" stroke-linejoin="round"/>
</svg>
