<svg width="320" height="92" viewBox="0 0 320 92" fill="none" xmlns="http://www.w3.org/2000/svg">
<path d="M66.1589 80.747L58.8724 46.5948L73.0405 32.0176C79.1126 25.7703 81.1366 17.4404 79.1126 13.2755C75.0645 11.1931 66.9685 13.2755 60.8964 19.5229L46.7283 34.1001L13.5345 26.6032C11.5105 26.1867 9.89127 27.0197 9.08167 28.6857L7.86726 30.7681C7.05765 32.8506 7.46246 34.933 9.08167 36.1825L30.5362 50.7597L22.4402 63.2544H10.2961L6.24805 67.4193L18.3921 75.7491L26.4882 88.2438L30.5362 84.0789V71.5842L42.6803 63.2544L56.8484 85.3283C58.0628 86.9943 60.0868 87.4108 62.1108 86.5778L64.1349 85.7448C65.7541 84.4954 66.5637 82.8294 66.1589 80.747Z" stroke="#155DFC" stroke-width="5.52592" stroke-linecap="round" stroke-linejoin="round"/>
<path d="M70.8027 11.3606C70.8027 5.08629 75.889 0 82.1633 0C88.4375 0 93.5238 5.08629 93.5238 11.3606C93.5238 17.6348 88.4375 22.7211 82.1633 22.7211C75.889 22.7211 70.8027 17.6348 70.8027 11.3606Z" fill="#F0B100"/>
<path d="M134.323 72.2827C132.469 72.2827 130.959 71.7867 129.795 70.7947C128.673 69.7596 127.746 68.5089 127.013 67.0425C126.323 65.5329 125.719 64.0881 125.202 62.708L123.455 57.4031C123.196 56.713 122.894 56.0014 122.549 55.2682C122.204 54.4919 121.751 53.7803 121.191 53.1333C120.673 52.4864 120.004 51.9688 119.185 51.5807C118.409 51.1925 117.46 50.9984 116.339 50.9984H114.462L114.398 47.8931C114.829 47.8069 115.239 47.7206 115.627 47.6344C116.058 47.5481 116.446 47.4403 116.791 47.3109C118.603 46.7502 120.177 45.8661 121.514 44.6585C122.851 43.4508 123.951 42.0923 124.813 40.5827C125.676 39.0732 126.323 37.5206 126.754 35.9248C127.185 34.329 127.401 32.8626 127.401 31.5256C127.401 30.1886 127.25 29.0888 126.948 28.2263C126.689 27.3205 126.452 26.6952 126.237 26.3501C126.884 26.0914 127.487 25.8973 128.048 25.7679C128.609 25.6385 129.234 25.5738 129.924 25.5738C130.83 25.5738 131.757 25.7463 132.706 26.0914C133.698 26.3933 134.517 27.0186 135.164 27.9675C135.811 28.8732 136.135 30.2533 136.135 32.1079C136.135 34.1781 135.617 36.313 134.582 38.5126C133.547 40.669 131.887 42.6745 129.601 44.5291C127.358 46.3836 124.425 47.9147 120.802 49.1223L120.932 48.4107C123.994 48.5401 126.301 49.1223 127.854 50.1574C129.407 51.1925 130.593 52.6589 131.412 54.5566L134.259 61.1553C135.035 62.6649 135.66 63.7215 136.135 64.3253C136.652 64.9291 137.278 65.2742 138.011 65.3604C138.27 65.4036 138.507 65.382 138.723 65.2957C138.981 65.2095 139.262 65.0801 139.564 64.9076C139.909 65.8564 140.081 66.6759 140.081 67.3659C140.081 68.7029 139.564 69.8674 138.528 70.8594C137.493 71.8082 136.092 72.2827 134.323 72.2827ZM111.486 72.218C110.02 72.218 108.791 71.8082 107.799 70.9888C106.807 70.1693 106.311 69.048 106.311 67.6247V35.6013C106.311 34.3506 106.225 33.0136 106.052 31.5903C105.923 30.1239 105.578 28.6575 105.017 27.1912C105.405 26.8461 106.052 26.4364 106.958 25.962C107.864 25.4876 108.942 25.2503 110.193 25.2503C111.659 25.2503 112.867 25.6601 113.815 26.4795C114.807 27.2558 115.303 28.3556 115.303 29.7789L115.368 61.8023C115.368 63.0099 115.433 64.3685 115.562 65.878C115.735 67.3444 116.101 68.7892 116.662 70.2125C116.274 70.5575 115.627 70.9672 114.721 71.4416C113.815 71.9592 112.737 72.218 111.486 72.218ZM171.334 71.8945C169.091 71.8945 167.323 71.0966 166.029 69.5008C164.779 67.8619 164.153 64.9723 164.153 60.8319V58.3735L165.706 58.697C165.275 61.0691 164.455 63.2687 163.247 65.2957C162.04 67.2797 160.487 68.8755 158.59 70.0831C156.692 71.2907 154.449 71.8945 151.861 71.8945C149.403 71.8945 147.354 71.2476 145.716 69.9537C144.12 68.6598 143.322 66.7621 143.322 64.2606C143.322 62.1904 143.883 60.4437 145.004 59.0205C146.168 57.5541 147.613 56.368 149.338 55.4623C151.107 54.5566 152.875 53.845 154.643 53.3274C156.368 52.853 157.986 52.5295 159.495 52.357C161.048 52.1414 162.428 52.012 163.636 51.9688V50.3515C163.636 46.858 163.247 44.2272 162.471 42.4589C161.695 40.6906 160.293 39.8064 158.266 39.8064C157.447 39.8064 156.692 39.9789 156.002 40.324C155.355 40.6259 154.837 41.1219 154.449 41.8119C154.104 42.502 153.932 43.4293 153.932 44.5938C153.932 45.4563 154.083 46.3405 154.384 47.2462C154.686 48.1519 155.29 48.8635 156.196 49.3811C155.678 49.8986 154.988 50.2868 154.126 50.5456C153.306 50.8044 152.422 50.9337 151.473 50.9337C149.36 50.9337 147.721 50.3515 146.557 49.187C145.435 48.0225 144.874 46.5993 144.874 44.9172C144.874 42.3295 146.125 40.3455 148.627 38.9654C151.171 37.5853 154.557 36.8952 158.784 36.8952C163.614 36.8952 167.151 37.9734 169.393 40.1299C171.636 42.2863 172.757 45.8876 172.757 50.9337V61.867C172.757 64.1528 173.469 65.2957 174.892 65.2957C175.108 65.2957 175.388 65.231 175.733 65.1017C176.122 64.9723 176.423 64.7566 176.639 64.4547C176.941 64.886 177.157 65.3604 177.286 65.878C177.415 66.3955 177.48 66.8484 177.48 67.2365C177.48 68.4873 176.919 69.5871 175.798 70.5359C174.72 71.4416 173.232 71.8945 171.334 71.8945ZM156.519 66.1368C157.339 66.0505 158.18 65.727 159.042 65.1664C159.905 64.5625 160.703 63.7647 161.436 62.7727C162.169 61.7376 162.752 60.5515 163.183 59.2145C163.657 57.8775 163.894 56.4111 163.894 54.8154C163.075 54.8154 162.234 54.8585 161.371 54.9447C160.509 54.9879 159.668 55.1173 158.848 55.3329C158.072 55.5486 157.339 55.8505 156.649 56.2386C155.614 56.7993 154.751 57.5972 154.061 58.6323C153.414 59.6243 153.091 60.7672 153.091 62.0611C153.091 63.1393 153.349 64.1313 153.867 65.037C154.428 65.8995 155.312 66.2661 156.519 66.1368ZM193.362 85.7389C191.206 85.7389 189.179 85.5449 187.281 85.1567C185.384 84.7685 183.852 84.0785 182.688 83.0865C181.523 82.0945 180.941 80.7144 180.941 78.9461C180.941 77.5228 181.502 76.3584 182.623 75.4526C183.745 74.5901 185.211 74.1588 187.022 74.1588C188.92 74.1588 190.257 74.6548 191.033 75.6467C190.386 76.078 189.912 76.5956 189.61 77.1994C189.308 77.8032 189.157 78.3854 189.157 78.9461C189.157 79.7224 189.308 80.4125 189.61 81.0163C189.955 81.6632 190.451 82.1592 191.098 82.5043C191.745 82.8924 192.565 83.0865 193.556 83.0865C196.317 83.0865 198.409 81.7926 199.832 79.2049C201.255 76.6603 201.967 73.3178 201.967 69.1774C201.967 68.6167 202.031 67.8188 202.161 66.7837C202.29 65.7486 202.441 64.6919 202.614 63.6137C202.786 62.5355 202.937 61.6298 203.066 60.8966L203.584 59.2145C203.023 63.0962 201.837 66.1583 200.026 68.401C198.214 70.6006 195.497 71.7004 191.874 71.7004C188.467 71.7004 185.923 70.7084 184.241 68.7245C182.559 66.7406 181.718 63.3981 181.718 58.697V47.3109C181.718 46.3189 181.631 45.0251 181.459 43.4293C181.329 41.8335 180.984 40.3024 180.424 38.836C181.027 38.3616 181.739 37.9303 182.559 37.5421C183.378 37.1109 184.37 36.8952 185.534 36.8952C187.001 36.8952 188.208 37.3049 189.157 38.1244C190.149 38.9007 190.645 40.0221 190.645 41.4885V57.2737C190.645 60.5947 190.904 63.1393 191.422 64.9076C191.982 66.6759 193.125 67.56 194.85 67.56C195.842 67.56 196.748 67.2581 197.567 66.6543C198.387 66.0074 199.077 65.0801 199.638 63.8725C200.242 62.6217 200.694 61.0906 200.996 59.2792C201.298 57.4678 201.449 55.3545 201.449 52.9392C201.449 50.869 201.428 49.1223 201.384 47.6991C201.384 46.2758 201.341 45.0682 201.255 44.0762C201.169 43.0842 201.018 42.1785 200.802 41.3591C200.63 40.5396 200.349 39.677 199.961 38.7713C200.349 38.4263 200.975 38.0381 201.837 37.6068C202.743 37.1324 203.821 36.8952 205.072 36.8952C206.495 36.8952 207.703 37.3481 208.695 38.2538C209.687 39.1164 210.183 40.3455 210.183 41.9413L210.247 67.8188C210.247 72.2611 209.514 75.7761 208.048 78.3639C206.581 80.9947 204.576 82.8709 202.031 83.9922C199.53 85.1567 196.64 85.7389 193.362 85.7389Z" fill="#155DFC"/>
<path d="M227.613 71.8931C224.988 71.8931 222.987 71.0754 221.609 69.44C220.275 67.7615 219.608 65.5021 219.608 62.6616V28.5115C219.608 27.0482 220.082 25.9293 221.028 25.1546C222.018 24.3369 223.245 23.928 224.708 23.928C225.999 23.928 227.075 24.1647 227.936 24.6381C228.797 25.1116 229.399 25.5204 229.743 25.8647C229.184 27.9305 228.818 29.8887 228.646 31.7393C228.517 33.5469 228.452 35.7848 228.452 38.4531V61.8869C228.452 63.0059 228.646 63.8667 229.033 64.4692C229.421 65.0287 229.98 65.3084 230.712 65.3084C231.013 65.3084 231.357 65.2439 231.745 65.1147C232.132 64.9856 232.412 64.7704 232.584 64.4692C232.928 64.8996 233.165 65.373 233.294 65.8894C233.423 66.4059 233.488 66.8578 233.488 67.2451C233.488 68.5792 232.907 69.6982 231.745 70.602C230.583 71.4627 229.205 71.8931 227.613 71.8931ZM253.046 72.1513C248.054 72.1513 244.051 70.6235 241.039 67.5679C238.069 64.4692 236.584 60.1009 236.584 54.463C236.584 49.0403 238.005 44.7796 240.845 41.6809C243.686 38.5392 247.774 36.9683 253.111 36.9683C255.607 36.9683 257.845 37.3342 259.824 38.0658C261.847 38.7974 263.44 39.8949 264.602 41.3581C265.807 42.7784 266.409 44.5859 266.409 46.7808C266.409 49.9656 265.118 52.4187 262.536 54.1402C259.954 55.8187 256.618 56.6579 252.53 56.6579C250.808 56.6579 248.958 56.6149 246.978 56.5288C245.041 56.3997 242.932 56.0554 240.651 55.4959L240.91 52.8491C241.813 52.9352 242.739 53.0428 243.686 53.1719C244.675 53.301 245.88 53.3871 247.301 53.4301C248.247 53.4301 249.259 53.3656 250.335 53.2364C251.454 53.1073 252.508 52.7846 253.498 52.2681C254.488 51.7086 255.284 50.8909 255.887 49.815C256.532 48.696 256.855 47.1897 256.855 45.2961C256.855 43.8328 256.661 42.7353 256.274 42.0037C255.887 41.229 255.37 40.6911 254.725 40.3898C254.122 40.0885 253.476 39.9379 252.788 39.9379C250.679 39.9379 249.022 41.1214 247.817 43.4885C246.655 45.8555 246.074 49.1264 246.074 53.301C246.074 56.6149 246.44 59.2617 247.172 61.2414C247.903 63.1781 248.979 64.5768 250.399 65.4375C251.82 66.2552 253.541 66.6641 255.564 66.6641C257.974 66.6641 259.932 66.1907 261.438 65.2439C262.988 64.297 264.107 63.1565 264.795 61.8224C265.269 61.9945 265.591 62.3604 265.764 62.9198C265.979 63.4793 265.85 64.3616 265.376 65.5666C264.559 67.6755 263.052 69.3109 260.857 70.4729C258.706 71.5919 256.102 72.1513 253.046 72.1513ZM262.923 25.1546L252.465 34.3861C251.949 34.3431 251.368 34.2785 250.722 34.1924C250.077 34.1064 249.625 33.9772 249.366 33.8051L255.176 23.4761C255.865 23.347 256.769 23.3901 257.888 23.6053C259.05 23.8204 260.126 24.0787 261.116 24.3799C262.105 24.6812 262.708 24.9394 262.923 25.1546ZM286.573 72.1513C281.537 72.1513 277.621 70.602 274.824 67.5033C272.026 64.4046 270.628 60.1009 270.628 54.5921C270.628 49.0403 272.026 44.7151 274.824 41.6164C277.621 38.5177 281.537 36.9683 286.573 36.9683C291.608 36.9683 295.525 38.5177 298.322 41.6164C301.119 44.7151 302.518 49.0403 302.518 54.5921C302.518 60.1009 301.119 64.4046 298.322 67.5033C295.525 70.602 291.608 72.1513 286.573 72.1513ZM286.573 69.1818C288.768 69.1818 290.382 67.9552 291.415 65.5021C292.447 63.0489 292.964 59.4123 292.964 54.5921C292.964 49.7289 292.447 46.0707 291.415 43.6176C290.382 41.1645 288.768 39.9379 286.573 39.9379C284.335 39.9379 282.7 41.1645 281.667 43.6176C280.634 46.0707 280.117 49.7289 280.117 54.5921C280.117 59.4123 280.634 63.0489 281.667 65.5021C282.7 67.9552 284.335 69.1818 286.573 69.1818Z" fill="#F0B100"/>
</svg>
