<svg width="822" height="418" viewBox="0 0 822 418" fill="none" xmlns="http://www.w3.org/2000/svg">
<path d="M405.173 47.8094L355.641 46.5864L385.815 62.9358L356.851 44.4375L374.989 73.9774L358.958 43.2033L360.157 102.136L361.356 43.2033L345.324 73.9774L363.463 44.4375L334.499 62.9358L364.674 46.5864L315.141 47.8094L364.674 49.0324L334.499 32.682L363.463 51.1813L345.325 21.6404L361.356 52.4155L360.157 0L358.958 52.4155L374.99 21.6404L356.851 51.1813L385.816 32.683L355.641 49.0324L405.173 47.8094Z" fill="#1C60DF" fill-opacity="0.5"/>
<path d="M821.084 131.897L771.552 130.674L801.727 147.023L772.762 128.525L790.9 158.065L774.869 127.291L776.068 186.223L777.267 127.291L761.236 158.065L779.374 128.525L750.41 147.023L780.585 130.674L731.052 131.897L780.585 133.12L750.41 116.769L779.374 135.269L761.237 105.728L777.267 136.503L776.068 84.0874L774.869 136.503L790.901 105.728L772.762 135.269L801.727 116.77L771.552 133.12L821.084 131.897Z" fill="#1C60DF" fill-opacity="0.5"/>
<path d="M340.129 247.751L290.597 246.528L320.771 262.877L291.807 244.379L309.945 273.919L293.914 243.145L295.113 302.077L296.312 243.145L280.281 273.919L298.419 244.379L269.455 262.877L299.63 246.528L250.097 247.751L299.63 248.974L269.455 232.623L298.419 251.123L280.281 221.582L296.312 252.357L295.113 199.941L293.914 252.357L309.946 221.582L291.807 251.123L320.772 232.624L290.597 248.974L340.129 247.751Z" fill="#1C60DF" fill-opacity="0.5"/>
<path d="M90.032 149.649L40.5001 148.426L70.6747 164.775L41.7103 146.277L59.8482 175.817L43.8173 145.043L45.0165 203.975L46.2157 145.043L30.1838 175.817L48.3227 146.277L19.3582 164.775L49.5329 148.426L0 149.649L49.5329 150.872L19.3582 134.521L48.3227 153.021L30.1847 123.48L46.2157 154.255L45.0165 101.839L43.8173 154.255L59.8491 123.48L41.7103 153.021L70.6757 134.522L40.5001 150.872L90.032 149.649Z" fill="#1C60DF" fill-opacity="0.5"/>
<path d="M568.032 77.5474C568.334 78.5947 568.49 79.6421 568.602 80.6885C568.708 81.7359 568.757 82.7823 568.755 83.8287C568.754 84.8751 568.703 85.9225 568.593 86.9689C568.478 88.0153 568.318 89.0618 568.01 90.1082C567.706 89.0608 567.549 88.0135 567.438 86.967C567.333 85.9206 567.284 84.8733 567.287 83.8268C567.29 82.7804 567.341 81.7331 567.451 80.6866C567.567 79.6402 567.726 78.5938 568.032 77.5474Z" fill="#C1A485" fill-opacity="0.2"/>
<path d="M567.984 106.576C567.681 105.529 567.526 104.482 567.414 103.435C567.307 102.388 567.26 101.342 567.261 100.295C567.262 99.2487 567.313 98.2013 567.423 97.1549C567.537 96.1085 567.698 95.062 568.006 94.0156C568.31 95.063 568.466 96.1103 568.577 97.1568C568.683 98.2041 568.732 99.2505 568.728 100.297C568.726 101.343 568.674 102.391 568.564 103.437C568.449 104.484 568.29 105.53 567.984 106.576Z" fill="#C1A485" fill-opacity="0.2"/>
<path d="M553.328 92.0365C554.387 91.7282 555.446 91.5694 556.505 91.4554C557.564 91.347 558.623 91.2984 559.681 91.2993C560.74 91.3003 561.798 91.3535 562.857 91.4647C563.916 91.5815 564.975 91.745 566.033 92.0589C564.974 92.3691 563.915 92.5289 562.856 92.6419C561.797 92.7503 560.738 92.7989 559.679 92.7961C558.62 92.7933 557.562 92.74 556.503 92.6289C555.444 92.5111 554.386 92.3486 553.328 92.0365Z" fill="#C1A485" fill-opacity="0.2"/>
<path d="M582.689 92.0868C581.63 92.3952 580.571 92.554 579.512 92.668C578.453 92.7764 577.394 92.8249 576.336 92.824C575.277 92.8231 574.219 92.7708 573.16 92.6586C572.101 92.5418 571.042 92.3783 569.984 92.0644C571.043 91.7542 572.102 91.5945 573.161 91.4814C574.22 91.374 575.279 91.3245 576.338 91.3273C577.397 91.3301 578.455 91.3824 579.514 91.4945C580.572 91.6122 581.63 91.7748 582.689 92.0868Z" fill="#C1A485" fill-opacity="0.2"/>
<path d="M422.371 128.934C422.673 129.981 422.829 131.029 422.941 132.075C423.047 133.123 423.096 134.169 423.094 135.215C423.093 136.262 423.042 137.309 422.932 138.356C422.817 139.402 422.657 140.448 422.349 141.495C422.045 140.448 421.888 139.4 421.777 138.354C421.672 137.307 421.623 136.26 421.626 135.214C421.629 134.167 421.68 133.12 421.79 132.073C421.906 131.027 422.065 129.981 422.371 128.934Z" fill="#C1A485" fill-opacity="0.2"/>
<path d="M422.322 157.963C422.02 156.916 421.864 155.868 421.753 154.822C421.646 153.775 421.599 152.728 421.6 151.682C421.601 150.635 421.652 149.588 421.762 148.542C421.876 147.495 422.037 146.449 422.344 145.402C422.649 146.45 422.805 147.497 422.916 148.543C423.021 149.591 423.071 150.637 423.067 151.684C423.064 152.73 423.013 153.777 422.903 154.824C422.788 155.87 422.628 156.917 422.322 157.963Z" fill="#C1A485" fill-opacity="0.2"/>
<path d="M407.667 143.423C408.726 143.115 409.785 142.956 410.844 142.842C411.903 142.734 412.962 142.685 414.02 142.686C415.079 142.687 416.137 142.74 417.196 142.851C418.255 142.968 419.313 143.132 420.372 143.446C419.313 143.756 418.253 143.916 417.194 144.029C416.135 144.137 415.076 144.186 414.018 144.183C412.959 144.18 411.901 144.127 410.842 144.016C409.783 143.898 408.725 143.735 407.667 143.423Z" fill="#C1A485" fill-opacity="0.2"/>
<path d="M437.028 143.474C435.969 143.782 434.91 143.941 433.851 144.055C432.792 144.163 431.733 144.212 430.675 144.211C429.616 144.21 428.557 144.157 427.498 144.045C426.439 143.929 425.381 143.765 424.323 143.451C425.382 143.141 426.441 142.981 427.5 142.868C428.559 142.761 429.618 142.711 430.676 142.714C431.735 142.717 432.794 142.769 433.853 142.881C434.911 142.999 435.969 143.162 437.028 143.474Z" fill="#C1A485" fill-opacity="0.2"/>
<path d="M558.907 216.493L657.764 207.471L559.607 198.515L594.075 159.337L555.306 194.815L546.457 93.9561L537.609 194.815L498.84 159.337L533.308 198.515L435.15 207.471L534.007 216.493L498.84 256.467L537.51 221.077L546.457 417.714L555.404 221.077L594.075 256.467L558.907 216.493Z" fill="#1C60DF" fill-opacity="0.2"/>
</svg>
